<svg xmlns="http://www.w3.org/2000/svg" width="960" height="461.66" viewBox="0 0 960 461.66"><g transform="translate(-664 -334.249)"><path d="M433.287,373.054c-2.541-2.438-5.14-16.034-8.385-17.414,2.425,5.36.664,6.779.651,12.661a39.8,39.8,0,0,1-1.161,9.913H369.435v-42.89a29.345,29.345,0,0,1,29.347-29.346,17.515,17.515,0,0,1,4.349.637,27.9,27.9,0,0,1,19.685,19.739C427.005,341.667,433.669,367.158,433.287,373.054Z" transform="translate(430.739 99.166)" fill="#2f2e41"/><path d="M469.024,705.464q-43.451,0-86.772-1.556c-41.267-1.482-83.939-3.014-123.6-25.012-27.745-15.387-52.318-40.074-71.062-71.394a240.224,240.224,0,0,1-27.235-68.281,280.7,280.7,0,0,1,1.023-132.881A236,236,0,0,1,177.2,362.968c28.924-59.9,81.68-100.1,144.74-110.31a7.307,7.307,0,0,1,1.571-.034c.284.015.566.031.854.019l.371-.118a18.123,18.123,0,0,1,2.921-.75c97.256-14.479,200.069,14.817,297.317,84.716,75.192,54.053,174.844,83.16,304.648,88.984l1.843.1c36.135,2.076,71.088,16.973,101.084,43.084,29.607,25.771,51.838,60.155,64.287,99.435,1.531,4.789,2.934,9.774,4.17,14.816a27.953,27.953,0,0,1-7.451,26.506v.009l-.323.332c-.778.774-1.6,1.516-2.434,2.207l-.984.811c-8.3,6.833-14.847,12.231-22.689,16.424a69.758,69.758,0,0,1-16.552,6.249c-31.632,7.712-63.755,14.862-95.476,21.253-61.6,12.421-124.832,22.668-187.926,30.454a2435.954,2435.954,0,0,1-298.148,18.31ZM322.775,254.746a3.771,3.771,0,0,0-.579.039C259.725,264.9,207.469,304.709,178.831,364.012a233.626,233.626,0,0,0-15.668,42.941,278.247,278.247,0,0,0-1.01,131.7,237.918,237.918,0,0,0,26.971,67.628c18.56,31.013,42.881,55.452,70.336,70.677,39.306,21.8,81.777,23.326,122.851,24.8a2432.991,2432.991,0,0,0,384.663-16.742c63.053-7.782,126.24-18.021,187.8-30.435,31.7-6.386,63.8-13.53,95.411-21.238a68.018,68.018,0,0,0,16.154-6.1c7.683-4.108,14.173-9.454,22.389-16.223l.984-.81c.72-.594,1.426-1.23,2.1-1.89l.194-.2c6.752-6.8,9.377-15.783,7.2-24.631h0c-1.223-4.988-2.611-9.92-4.126-14.659-25.432-80.242-91.222-136.95-163.71-141.113l-1.833-.1c-59.293-2.661-111.179-10.031-158.616-22.534C714.3,390.164,664.862,367.7,623.988,338.314,527.11,268.682,424.727,239.5,327.9,253.906a16.608,16.608,0,0,0-2.661.69l-.669.187a10.06,10.06,0,0,1-1.14-.014c-.224-.012-.44-.023-.652-.023Z" transform="translate(511.12 90.445)" fill="#d6d6e3"/><circle cx="54.75" cy="54.75" r="54.75" transform="translate(730.821 565.87)" fill="#f0f0f0"/><circle cx="54.75" cy="54.75" r="54.75" transform="translate(1070.057 334.249)" fill="#f0f0f0"/><rect width="12.972" height="17.173" transform="translate(877.257 762.847)" fill="#e49497"/><path d="M130.489,433.06a4.241,4.241,0,0,1-1.773-2.983,5.464,5.464,0,0,1,1.834-3.942c.028-.394.431-5.317,1.338-6.2a4.29,4.29,0,0,1,.22-3.144,2.207,2.207,0,0,1,1.7-.931h.036l.019.028c.019.036,2.209,3.842,5.5,4.172,1.889.192,3.777-.779,5.62-2.888.064-.156.586-2.722.931-4.419V412.7l17.96,9.433,10.487,2.907a3.051,3.051,0,0,1,.5,5.689l-5.088,2.447a15.959,15.959,0,0,1-6.848,1.559H135.336a7.7,7.7,0,0,1-4.841-1.678Z" transform="translate(744.137 357.091)" fill="#090814"/><rect width="11.98" height="11.98" transform="translate(747.61 771.227) rotate(-143.623)" fill="#e49497"/><path d="M18.58,393a3.912,3.912,0,0,1,.31-3.192,5.021,5.021,0,0,1,3.523-1.922c.237-.279,3.234-3.709,4.387-3.87a3.937,3.937,0,0,1,1.879-2.219,2.02,2.02,0,0,1,1.77.245l.026.017v.034s-.465,4.065,1.8,6.122c1.3,1.177,3.234,1.49,5.758.931.136-.076,1.931-1.7,3.1-2.785l.051-.042,8.171,16.852,6.206,7.909a2.821,2.821,0,0,1,.051,3.413,2.852,2.852,0,0,1-2.793,1.1l-5.123-.973a14.773,14.773,0,0,1-5.953-2.591l-20.5-15.117a7.146,7.146,0,0,1-2.689-3.9Z" transform="translate(711.865 377.197)" fill="#090814"/><path d="M937.122,536.366l-.89,4.448s-2.667,2.668-1.333,4,.889,7.559.889,7.559c-.746,11.35-15.577,75.133-18.229,87.59,0,0-20.452,13.343-36.458,39.57s-16.446,32.9-16.446,32.9L882.437,720l44.455-53.8s12.449-7.559,16.9-14.227S975.8,576.384,975.8,576.384l15.565,72.028s-.889,26.232,3.112,43.133A180.936,180.936,0,0,1,998.929,724l20.894-2.223s-1.333-63.136-3.557-69.806c0,0,9.337-76.919-9.337-107.6l-15.05-40.123-14.74-5.673Z" transform="translate(-124.04 44.067)" fill="#2f2e41"/><path d="M9.694,57.01l1.943-18.228C-6.277,31.206-3.507.4,19.936,0c23.186.4,26.146,30.528,8.889,38.522L30.179,57.01Z" transform="translate(808.413 419.353)" fill="#ed9da0"/><path d="M939.4,419.208l-39.177-.414-13.834.847,11.2,113.648s62-3.272,62.034-22.2l-5.8-16.816Z" transform="translate(-84.267 48.86)" fill="#3f3d56"/><path d="M861.8,535.347a8.814,8.814,0,0,1-3.453-13.065l-10.736-17.041,8.764-9.05L871.2,520.469a8.861,8.861,0,0,1-9.4,14.879Z" transform="translate(37.315 44.209)" fill="#ed9da0"/><path d="M861.557,423.676l7.691-5.068s5.935,1.331,12.248,13.472,31.769,66.425,31.769,66.425L902.8,509.126,874.886,466.54Z" transform="translate(-14.572 48.872)" fill="#3f3d56"/><circle cx="54.75" cy="54.75" r="54.75" transform="translate(1514.5 574.458)" fill="#f0f0f0"/><circle cx="9.151" cy="9.151" r="9.151" transform="translate(1190.519 476.72)" fill="#fff"/><path d="M436.109,279.426c0,22.744-33.451,86.889-46.015,110.178a5.33,5.33,0,0,1-9.386,0c-12.564-23.289-46.015-87.432-46.015-110.178a50.708,50.708,0,1,1,101.416,0Z" transform="translate(1159.319 196.513)" fill="#2563EB"/><ellipse cx="22.528" cy="22.528" rx="22.528" ry="22.528" transform="translate(1522.454 453.636)" fill="#fff"/><path d="M9.52,0c5.253,0,21.586,4.259,21.586,9.512S14.773,19.023,9.52,19.023-6.492,14.765-6.492,9.512,4.266,0,9.52,0Z" transform="translate(1535.462 591.805)" fill="#2563EB"/><path d="M405.326,335.946a9.8,9.8,0,0,0-2.864-5.192,13.37,13.37,0,0,1-.774,5.6,25.835,25.835,0,0,1-14.2-2.812c-3.289-2.232-7.475-2.038-12.351,0A18.057,18.057,0,0,1,393.2,315.487h3.223a18.062,18.062,0,0,1,18.059,18.056A53.769,53.769,0,0,1,405.326,335.946Z" transform="translate(430.838 99.331)" fill="#2f2e41"/><g transform="translate(1129.245 353.689)"><g transform="translate(0 0)"><path d="M366.985,127.146h-1.11V96.771a17.58,17.58,0,0,0-17.58-17.58H283.942a17.58,17.58,0,0,0-17.58,17.58V263.41a17.58,17.58,0,0,0,17.58,17.581H348.3a17.581,17.581,0,0,0,17.581-17.581V148.767h1.11Z" transform="translate(-266.362 -79.19)" fill="#090814"/><path d="M361.643,95.686h-8.4a6.237,6.237,0,0,1-5.776,8.593H310.6a6.237,6.237,0,0,1-5.776-8.593h-7.844a13.129,13.129,0,0,0-13.129,13.129V275.21a13.129,13.129,0,0,0,13.129,13.129h64.663a13.129,13.129,0,0,0,13.129-13.129V108.815a13.129,13.129,0,0,0-13.126-13.129Z" transform="translate(-278.998 -91.111)" fill="#fff"/></g><circle cx="10.089" cy="10.089" r="10.089" transform="translate(16.008 95.111)" fill="#2563EB"/><circle cx="10.089" cy="10.089" r="10.089" transform="translate(40.222 95.111)" fill="#d6d6e3"/><circle cx="10.089" cy="10.089" r="10.089" transform="translate(64.437 95.111)" fill="#d6d6e3"/><circle cx="10.089" cy="10.089" r="10.089" transform="translate(16.008 130.022)" fill="#d6d6e3"/><circle cx="10.089" cy="10.089" r="10.089" transform="translate(40.222 130.022)" fill="#d6d6e3"/><circle cx="10.089" cy="10.089" r="10.089" transform="translate(64.437 130.022)" fill="#d6d6e3"/><path d="M849.335,189.5H838.966c-.187,0-.338-.355-.338-.793s.151-.793.338-.793h10.369c.187,0,.338.355.338.793s-.151.793-.338.793Z" transform="translate(-818.053 -70.299)" fill="#d6d6e3"/><path d="M849.335,189.5H838.966c-.187,0-.338-.355-.338-.793s.151-.793.338-.793h10.369c.187,0,.338.355.338.793s-.151.793-.338.793Z" transform="translate(-793.839 -70.299)" fill="#d6d6e3"/><path d="M849.335,189.5H838.966c-.187,0-.338-.355-.338-.793s.151-.793.338-.793h10.369c.187,0,.338.355.338.793s-.151.793-.338.793Z" transform="translate(-769.625 -70.299)" fill="#d6d6e3"/><path d="M849.335,189.5H838.966c-.187,0-.338-.355-.338-.793s.151-.793.338-.793h10.369c.187,0,.338.355.338.793s-.151.793-.338.793Z" transform="translate(-818.053 -35.387)" fill="#d6d6e3"/><path d="M849.335,189.5H838.966c-.187,0-.338-.355-.338-.793s.151-.793.338-.793h10.369c.187,0,.338.355.338.793s-.151.793-.338.793Z" transform="translate(-793.839 -35.387)" fill="#d6d6e3"/><path d="M849.335,189.5H838.966c-.187,0-.338-.355-.338-.793s.151-.793.338-.793h10.369c.187,0,.338.355.338.793s-.151.793-.338.793Z" transform="translate(-769.625 -35.387)" fill="#d6d6e3"/><path d="M211.45,231.132c-1.216,0-2.2,2.382-2.2,5.32s.986,5.32,2.2,5.32h37.6c1.216,0,2.2-2.382,2.2-5.32s-.986-5.32-2.2-5.32Z" transform="translate(-179.937 -191.968)" fill="#2563EB"/></g><g transform="translate(785.572 569.688)"><path d="M383.344,414.5H239.657a6.634,6.634,0,0,1-6.627-6.627V337.866a6.634,6.634,0,0,1,6.627-6.627H383.344a6.634,6.634,0,0,1,6.627,6.627v70.012a6.634,6.634,0,0,1-6.627,6.627Z" transform="translate(-233.03 -331.239)" fill="#2563EB"/><path d="M370.659,375.933H253.747a3.682,3.682,0,0,1-3.462-2.441l-13.232-37.124a3.675,3.675,0,0,1,3.456-4.909l146.142-.2h.005a3.675,3.675,0,0,1,3.378,5.122l-.2-.086.2.086-16,37.328a3.67,3.67,0,0,1-3.378,2.227Z" transform="translate(-235.179 -331.248)" fill="#090814" opacity="0.197"/><path d="M294.643,489.875H254.328a3.745,3.745,0,0,1,0-7.491h40.314a3.745,3.745,0,0,1,0,7.491Z" transform="translate(-242.931 -416.493)" fill="#d6d6e3"/><circle cx="9.155" cy="9.155" r="9.155" transform="translate(69.097 35.53)" fill="#fff"/></g><path d="M980.369,549.891a8.814,8.814,0,0,0-2.538-13.274l2.3-20.007-11.818-4.366-2.857,28.3a8.861,8.861,0,0,0,14.908,9.345Z" transform="translate(-180.526 43.246)" fill="#ed9da0"/><path d="M976.2,429.482l-6.975-9.75s-4.774-1.059-10.413,5.52-8.929,88.822-8.929,88.822l20.678,4.7L982.784,460.5Z" transform="translate(-167.112 48.807)" fill="#3f3d56"/></g></svg>