<svg xmlns="http://www.w3.org/2000/svg" xmlns:xlink="http://www.w3.org/1999/xlink" width="382.611" height="800" viewBox="0 0 382.611 800"><defs><clipPath id="a"><rect width="68.206" height="116.164" fill="#fff"/></clipPath></defs><g transform="translate(-780.492 -180)"><path d="M648.981,261.54h-4.22v-115.5A66.842,66.842,0,0,0,577.919,79.2H333.212a66.842,66.842,0,0,0-66.842,66.842V779.678a66.842,66.842,0,0,0,66.842,66.842h244.7a66.842,66.842,0,0,0,66.842-66.842V343.754h4.226Z" transform="translate(514.122 100.8)" fill="#090814"/><path d="M579.66,95.686H547.719a23.717,23.717,0,0,1-21.954,32.674h-140.2a23.718,23.718,0,0,1-21.954-32.674H333.779a49.92,49.92,0,0,0-49.92,49.919V778.325a49.919,49.919,0,0,0,49.916,49.916H579.65a49.919,49.919,0,0,0,49.918-49.916V145.6a49.919,49.919,0,0,0-49.911-49.919Z" transform="translate(515.081 101.699)" fill="#fff"/><g transform="translate(818.793 765.492)"><path d="M393.347,295.333a57.862,57.862,0,1,1-16.874-41.095,58.012,58.012,0,0,1,16.874,41.095Z" transform="translate(-277.323 -237.218)" fill="#f2f2f2"/><path d="M0,81.177,4.974,67.294a14.935,14.935,0,0,1,12.684-8.71l3.166-.192.641-.553A30.028,30.028,0,0,1,10.28,35.164c-.184-7.445,0-14.1.943-17.111C13.623,10.407,19.079,3.4,26.624.81s18.592,1.353,24.263,7c8.637,8.607,11.837,34.665,8.556,49.631l1.287.773-.013-.052,4.845.3a14.913,14.913,0,0,1,12.68,8.706l2.921,8.144A57.986,57.986,0,0,1,0,81.177Z" transform="translate(19.899 21.089)" fill="#ccc"/></g><g transform="translate(947.568 765.068)"><circle cx="58.012" cy="58.012" r="58.012" fill="#f2f2f2"/><path d="M0,84.069,4.975,70.184a14.923,14.923,0,0,1,12.682-8.707l3.167-.195,7-6.039,1.087-10.089a18.565,18.565,0,0,1-10.6-11.735c-.086.019-.171.037-.258.051l.08-.686c-.044-.164-.085-.328-.123-.493a28.791,28.791,0,0,1-.14-15.515A10.465,10.465,0,0,1,20.1,12.244a4.522,4.522,0,0,1,4.563-1.41C24.377,6.163,28.023,1.843,32.429.526S41.682.483,45.57,2.968a23.9,23.9,0,0,1,10,13.6A24.376,24.376,0,0,1,54.044,33.5q-.009-.481-.032-.962a18.554,18.554,0,0,1-9.284,11.876L47.979,53.8c.3-.039.454-.075.427-.107l12.317,7.41-.007-.051,4.843.3a14.921,14.921,0,0,1,12.682,8.711L81.163,78.2A57.989,57.989,0,0,1,0,84.069Z" transform="translate(20.37 18.623)" fill="#ccc"/></g><g transform="translate(876.806 382.487)"><circle cx="93.926" cy="93.926" r="93.926" transform="translate(0 0.1)" fill="#f2f2f2"/><path d="M0,136.7l8.058-22.477a24.175,24.175,0,0,1,20.533-14.1l5.124-.312L45.936,89.266s1.214-.043,3.171-.117l1.765-18.331A30.755,30.755,0,0,1,37.747,57.447c.054.426.106.668.106.668s-1.59-1.384-6.374-13.859,0-26.331,0-26.331c1.434-6.637,7.977-4.155,7.977-4.155C44,4.358,52.315,4.358,52.315,4.358,67.562-6.73,82.515,6.84,82.515,6.84c17.546,1.383,9.573,16.63,9.573,16.63,18.343,6.234,3.194,28.009,3.194,28.009s-.395,1.545-.978,1.551a30.642,30.642,0,0,1-29.184,21.3c-.868,0-1.732-.036-2.589-.11V88.6c8.106-.363,16.088-.793,15.846-1.072l19.945,12-.016-.087,7.845.481a24.165,24.165,0,0,1,20.531,14.1l4.729,13.183A93.892,93.892,0,0,1,0,136.7Z" transform="translate(32.634 29.278)" fill="#ccc"/><path d="M536.7,447.924v.035a1.492,1.492,0,0,1-.1-.4Z" transform="translate(-474.365 -364.876)" fill="#f2f2f2"/><path d="M536.706,447.935c.086.362.19.725.293,1.07a3.183,3.183,0,0,1-.431.086Z" transform="translate(-474.367 -364.852)" fill="#f2f2f2"/><path d="M660.035,463.808A93.914,93.914,0,0,1,569.8,557.64l-.013-187.664A93.9,93.9,0,0,1,660.035,463.808Z" transform="translate(-472.184 -369.976)" fill="#2563EB"/><path d="M536.6,447.562l.1.362v.035A1.493,1.493,0,0,1,536.6,447.562Z" transform="translate(-474.365 -364.876)" fill="#ffb6b6"/><path d="M0,78.533V58.652H0V0A30.026,30.026,0,0,1,23.713,29.336a29.581,29.581,0,0,1-.917,7.352V36.7A30.018,30.018,0,0,1,11.613,53.39l2.418,25.143Z" transform="translate(97.605 46.155)" fill="#9f616a"/><path d="M636.568,519.435a93.568,93.568,0,0,1-66.777,31.818V480.732c7.333-.345,13.977-.707,13.752-.966l19.947,11.992-.017-.086,7.834.483a24.129,24.129,0,0,1,20.534,14.1l4.538,12.648Z" transform="translate(-472.184 -362.76)" fill="#3f3d56"/><path d="M536.706,447.935c.086.362.19.725.293,1.07a3.183,3.183,0,0,1-.431.086Z" transform="translate(-474.367 -364.852)" fill="#2f2e41"/><path d="M592.672,452.365c-.035-.483-.052-.949-.086-1.432v-.017a42.71,42.71,0,0,0-1.449-9.818c-1.122-3.623-3.227-7.092-6.419-9.024-4.78-2.9-11.492-1.329-14.926,3.02V398.909a31.523,31.523,0,0,1,9.162,4.038,38.624,38.624,0,0,1,16.185,22.017A39.446,39.446,0,0,1,592.672,452.365Z" transform="translate(-472.184 -368.074)" fill="#2f2e41"/></g><path d="M568.653,585.321c-.62.021-1.149-.309-1.183-.74V168.74a1.315,1.315,0,0,1,2.365,0V584.582c-.034.431-.562.761-1.183.74Z" transform="translate(404.327 100.455)" fill="#2f2e41"/><g transform="translate(1076.239 765.082)" clip-path="url(#a)"><g transform="translate(0.104 -0.014)"><circle cx="58.012" cy="58.012" r="58.012" fill="#f2f2f2"/><path d="M0,81.362,4.975,67.477a14.938,14.938,0,0,1,12.682-8.707l3.167-.194,4.764-4.109V42.137c-11.675.786-24.392-.06-17.1-15.493a54.508,54.508,0,0,0,3.891-12.412C14.414,4.325,28.089,0,37.813,0,49.2,0,57.721,9.253,58.434,20.617c1.127,18.008-3.5,21.086-10.139,21.195L50.082,52l10.642,6.4-.007-.054,4.843.3a14.924,14.924,0,0,1,12.682,8.707L81.163,75.5A57.989,57.989,0,0,1,0,81.362Z" transform="translate(21.956 21.09)" fill="#ccc"/></g></g><g transform="translate(845.7 594.203)"><path d="M721.931,535.268l-8.981,1s-3.992,17.962,0,41.912,8.981,47.9,8.981,47.9,3.992,77.837,5.987,78.835,19.958,6.986,20.956,1,1-142.7,1-142.7l13.971,65.862s2,82.827,5.987,82.827,16.965-1,16.965-7.984,2.994-98.794,2.994-98.794-1-67.859-4.989-69.854S721.931,535.268,721.931,535.268Z" transform="translate(-664.791 -338.077)" fill="#090814"/><path d="M731.056,739.861s-8.981-1-10.977,0-4.989,7.983,0,11.975,17.962,9.979,21.954,9.979a20.643,20.643,0,0,0,7.984-2l-2-16.965Z" transform="translate(-665.934 -376.018)" fill="#090814"/><path d="M783.149,744.452l1,13.971s12.973,2,13.971,0,10.977-6.986,11.975-7.984,2-11.975-3.992-12.973-7.984,2-7.984,2Z" transform="translate(-678.109 -375.619)" fill="#090814"/><path d="M675.474,432.612s-23.95,22.952-20.956,34.927,26.944,46.9,26.944,46.9,22.952,11.975,25.946,0-15.965-8.981-15.965-8.981l-14.969-35.925,16.965-23.95Z" transform="translate(-654.259 -319.247)" fill="#9f616a"/><path d="M808.916,371.956s21.818-14.03,21.313-23.669-13.658-40.032-13.658-40.032-10.289-21.392-14.382-12.65,5.376,18.049,5.376,18.049l6.111,29.814-16.6,15.842Z" transform="translate(-680.685 -293.506)" fill="#9f616a"/><path d="M9.773,33.953a17.962,17.962,0,1,1,23.34-6.337c.287,6.236.817,16.293.817,16.293L11.974,47.9Z" transform="translate(56.143 25.641)" fill="#9f616a"/><path d="M726.827,378.959s24.948-5.987,27.942-3.992,17.962,3.992,17.962,3.992L789.7,404.905l-4.991,32.931s-1,52.89,1,61.871,12.973,9.979-9.979,11.975-26.944-1-42.911,2.994-28.94-2-24.948-5.987,10.977-67.859,2.994-73.846-10.976-36.926-10.976-36.926S726.827,383.949,726.827,378.959Z" transform="translate(-662.702 -308.504)" fill="#2563EB"/><path d="M785.6,381.593l2.994-2.994,5.987-5.987s19.459,8.482,18.462,11.476-7.484,20.457-7.484,20.457l-8.981,2.994Z" transform="translate(-678.563 -308.144)" fill="#2563EB"/><path d="M707.1,405.22l-11.975-2S686.144,413.2,683.15,417.2s-8.981,13.971-8.981,13.971l20.956,14.969,15.967-16.965Z" transform="translate(-657.943 -313.808)" fill="#2563EB"/><path d="M746.388,315.467l-.185-1.439a11.317,11.317,0,0,0-3.595.565,5.906,5.906,0,0,1,.222-2.586,11.5,11.5,0,0,0-3.328,1.447l-.726-2.626-9.976,4.916c-3.58,1.765-7.357,3.7-9.4,7.132-2.284,3.821-1.885,8.732-.325,12.9s4.152,7.857,6.231,11.793a29.461,29.461,0,0,0,2.831,4.819c3.765,4.691,11.1,5.642,16.4,2.809a9.493,9.493,0,0,0,4.545-4.678,30.422,30.422,0,0,0,.908-3.874c.657-2.683,1.42-8.219,3.6-9.917.959-.747,2.86,1.728,3.654.809,2.042-2.363,1.614-6.007.345-8.861a64.668,64.668,0,0,0-4.259-8.3C752.649,319.305,746.366,315.294,746.388,315.467Z" transform="translate(-666.015 -293.625)" fill="#090814"/></g><path d="M928.793,729.888a1.265,1.265,0,0,1-1.268,1.268H628.813a1.268,1.268,0,1,1,0-2.536H927.525a1.265,1.265,0,0,1,1.268,1.268Z" transform="translate(171.395 248.844)" fill="#ccc"/></g></svg>