<?xml version="1.0" encoding="UTF-8"?><svg id="uuid-d6f7bb75-3c91-4fc0-b7ee-e750abf57c34" xmlns="http://www.w3.org/2000/svg" width="483.9465" height="746.68887" viewBox="0 0 483.9465 746.68887"><rect x="120.29764" y="145.14246" width="168.87506" height="202.09639" fill="#090814"/><path d="M98.10793,159.63256c-12.34086-49.71173,17.95428-100.0154,67.66635-112.35634,49.71207-12.34094,100.01574,17.9542,112.3566,67.66593,10.00844,40.31622-8.02905,81.01784-41.72036,101.54731l-10.73559,14.14401,63.14075,63.00697-92.34307,79.30866-104.651-84.08307s61.78203-34.12624,65.22639-64.2008c-28.29138-10.08982-51.16085-33.69627-58.94006-65.03267Z" fill="#ffb6b6"/><path d="M418.74421,260.42355l35.92721,186.67384-62.84175,20.06912-24.42646-196.74905c-11.15217-7.26959-19.88783-20.04514-22.93716-35.7102-5.33551-27.40981,8.72807-53.20911,31.41205-57.62476,22.684-4.41556,45.39802,14.22463,50.73354,41.63452,3.04935,15.66514-.25682,30.7846-7.86744,41.70653Z" fill="#ffb6b6"/><path d="M445.58976,351.39151l-72.78514-9.50658v40.80683l-57.12956-99.02458-69.69875-17.393s-19.11145,39.3067-112.02768-18.51701l-72.36412-3.26455S2.17991,214.3787.15055,310.81733c-2.02936,96.43896,16.33557,283.03078,62.52215,264.48268l4.35273,35.91001,225.7978,4.11566,12.83649-31.43123s10.29346-102.86684,8.4084-127.73789c31.62453,29.9953,79.15985,66.05976,116.41015,55.48479,61.3853-17.42612,15.11149-160.24984,15.11149-160.24984Z" fill="#2563EB"/><path d="M67.02522,587.27015l-9.79364,56.04139s-26.04359,58.68835-22.85183,103.37733h292.72107s-1.0897-129.8768-29.38092-147.44872l-230.69467-11.97001Z" fill="#090814"/><path d="M148.6389,17.06257S41.79406-2.10824,59.40794,251.02179l116.25857,175.1177s-73.14103-301.27789-1.45532-344.87416c35.84285-21.79813,59.10275-15.40506,73.40194-3.56246,13.12693,10.87174,27.59074,49.05744,26.33313,66.05536l-33.22132,315.60257,62.43587-183.31083S343.45171-81.06034,148.6389,17.06257Z" fill="#090814"/><path d="M271.17782,208.81667l-30.5875,71.58605,67.74557-13.258s27.04579,20.46576,61.20405,3.46436l88.22071,9.79364,3.18662-22.30774,22.99925-4.89682-.14742-50.60048-18.4991-20.67547-7.61728-12.5141-73.45231,9.79364-4.89682-18.4991s-2.2414-15.61301-22.85183-25.0282c-20.61043-9.41519-59.34733-9.35561-64.20276,14.14637-4.85543,23.50198-21.10116,58.99584-21.10116,58.99584Z" fill="#090814"/><path d="M270.80345,282.44762l-105.21812,158.32572-58.8882-29.73273,120.48284-157.45071c-2.85882-13.00173-.13486-28.23677,8.67014-41.54709,15.4065-23.28959,43.52042-31.83334,62.79461-19.08317,19.27413,12.75024,22.40951,41.96587,7.00296,65.25553-8.80505,13.31038-21.76064,21.77688-34.84422,24.23244Z" fill="#ffb6b6"/><path d="M14.1964,360.93119s67.62116,167.18521,119.20795,139.28437c51.58679-27.90084,64.74685-78.34913,64.74685-78.34913l-46.24775-77.26095-29.38092,24.4841-37.54229-74.54049" fill="#2563EB"/><path d="M157.04799,224.66523s34.19781,20.86392,68.62693,5.96824l1.50504,22.95644-73.98211-17.42529,3.85014-11.49939Z" fill="#090814" opacity=".2"/><path d="M449.97422,197.24919l-2.17636,42.9832s31.4125-9.80373,2.17636-42.9832Z" fill="#2563EB"/></svg>